<?xml version="1.0" encoding="UTF-8" ?>
<!DOCTYPE svg PUBLIC "-//W3C//DTD SVG 1.1//EN" "http://www.w3.org/Graphics/SVG/1.1/DTD/svg11.dtd">
<svg width="381pt" height="381pt" viewBox="0 0 381 381" version="1.1" xmlns="http://www.w3.org/2000/svg">
<path fill="#b0a5bd" d=" M 0.00 0.00 L 381.00 0.00 L 381.00 92.00 C 366.06 91.99 351.11 92.01 336.17 91.99 C 317.52 64.59 291.07 42.54 260.62 29.39 C 229.80 15.92 195.06 11.83 161.90 17.27 C 128.29 22.70 96.46 38.34 71.49 61.46 C 47.45 83.56 29.73 112.49 21.15 144.02 C 15.57 164.23 13.82 185.43 15.62 206.31 C 57.41 206.49 99.21 206.09 141.00 206.50 C 99.22 206.72 57.43 206.56 15.64 206.58 C 10.43 206.59 5.19 206.14 0.00 206.87 L 0.00 0.00 Z" />
<path fill="#ffffff" d=" M 161.90 17.27 C 195.06 11.83 229.80 15.92 260.62 29.39 C 291.07 42.54 317.52 64.59 336.17 91.99 C 304.20 92.01 272.22 92.00 240.25 91.99 C 240.22 77.39 240.32 62.79 240.20 48.18 C 211.53 78.12 182.79 107.99 154.12 137.92 C 182.77 167.86 211.40 197.84 240.24 227.60 C 240.26 213.07 240.25 198.54 240.25 184.01 C 282.25 183.99 324.26 184.00 366.27 184.00 C 367.08 208.20 363.19 232.60 354.21 255.11 C 342.51 284.97 322.38 311.42 296.82 330.77 C 272.53 349.23 243.35 361.24 213.06 364.99 C 180.41 369.18 146.58 364.09 116.73 350.16 C 91.50 338.49 69.18 320.67 52.07 298.78 C 81.71 298.39 111.36 299.01 141.00 298.50 C 141.02 313.13 140.97 327.76 141.03 342.40 C 169.67 312.45 198.43 282.63 227.11 252.71 C 198.45 222.82 169.83 192.88 141.01 163.15 C 140.99 177.60 141.00 192.05 141.00 206.50 C 99.21 206.09 57.41 206.49 15.62 206.31 C 13.82 185.43 15.57 164.23 21.15 144.02 C 29.73 112.49 47.45 83.56 71.49 61.46 C 96.46 38.34 128.29 22.70 161.90 17.27 Z" />
<path fill="#1e0863" d=" M 154.12 137.92 C 182.79 107.99 211.53 78.12 240.20 48.18 C 240.32 62.79 240.22 77.39 240.25 91.99 C 272.22 92.00 304.20 92.01 336.17 91.99 C 354.56 119.06 365.03 151.31 366.27 184.00 C 324.26 184.00 282.25 183.99 240.25 184.01 C 240.25 198.54 240.26 213.07 240.24 227.60 C 211.40 197.84 182.77 167.86 154.12 137.92 Z" />
<path fill="#725ca2" d=" M 336.17 91.99 C 351.11 92.01 366.06 91.99 381.00 92.00 L 381.00 184.02 C 376.09 183.99 371.18 184.00 366.27 184.00 C 365.03 151.31 354.56 119.06 336.17 91.99 Z" />
<path fill="#1e0863" d=" M 141.01 163.15 C 169.83 192.88 198.45 222.82 227.11 252.71 C 198.43 282.63 169.67 312.45 141.03 342.40 C 140.97 327.76 141.02 313.13 141.00 298.50 C 111.22 298.24 81.44 298.48 51.67 298.40 C 31.39 271.95 18.49 239.84 15.64 206.58 C 57.43 206.56 99.22 206.72 141.00 206.50 C 141.00 192.05 140.99 177.60 141.01 163.15 Z" />
<path fill="#b0a5bd" d=" M 366.27 184.00 C 371.18 184.00 376.09 183.99 381.00 184.02 L 381.00 381.00 L 0.00 381.00 L 0.00 298.49 C 17.22 298.44 34.45 298.61 51.67 298.40 C 81.44 298.48 111.22 298.24 141.00 298.50 C 111.36 299.01 81.71 298.39 52.07 298.78 C 69.18 320.67 91.50 338.49 116.73 350.16 C 146.58 364.09 180.41 369.18 213.06 364.99 C 243.35 361.24 272.53 349.23 296.82 330.77 C 322.38 311.42 342.51 284.97 354.21 255.11 C 363.19 232.60 367.08 208.20 366.27 184.00 Z" />
<path fill="#725ca2" d=" M 0.00 206.87 C 5.19 206.14 10.43 206.59 15.64 206.58 C 18.49 239.84 31.39 271.95 51.67 298.40 C 34.45 298.61 17.22 298.44 0.00 298.49 L 0.00 206.87 Z" />
</svg>
